<svg viewBox="0 0 1200 800" fill="none" xmlns="http://www.w3.org/2000/svg">
  <defs>
    <linearGradient id="pg" x1="0" y1="0" x2="0" y2="1">
      <stop offset="0%" stop-color="#0D4C8F"/>
      <stop offset="100%" stop-color="#111111"/>
    </linearGradient>
  </defs>
  <rect width="1200" height="800" fill="url(#pg)"/>
  <!-- Dotted grid -->
  <g opacity="0.05">
    <circle cx="100" cy="100" r="2" fill="#F7B500"/>
    <circle cx="200" cy="100" r="2" fill="#F7B500"/>
    <circle cx="300" cy="100" r="2" fill="#F7B500"/>
    <circle cx="400" cy="100" r="2" fill="#F7B500"/>
    <circle cx="500" cy="100" r="2" fill="#F7B500"/>
    <circle cx="100" cy="200" r="2" fill="#F7B500"/>
    <circle cx="200" cy="200" r="2" fill="#F7B500"/>
    <circle cx="300" cy="200" r="2" fill="#F7B500"/>
    <circle cx="400" cy="200" r="2" fill="#F7B500"/>
    <circle cx="500" cy="200" r="2" fill="#F7B500"/>
    <circle cx="100" cy="300" r="2" fill="#F7B500"/>
    <circle cx="200" cy="300" r="2" fill="#F7B500"/>
    <circle cx="300" cy="300" r="2" fill="#F7B500"/>
    <circle cx="400" cy="300" r="2" fill="#F7B500"/>
    <circle cx="500" cy="300" r="2" fill="#F7B500"/>
    <circle cx="100" cy="400" r="2" fill="#F7B500"/>
    <circle cx="200" cy="400" r="2" fill="#F7B500"/>
    <circle cx="300" cy="400" r="2" fill="#F7B500"/>
    <circle cx="400" cy="400" r="2" fill="#F7B500"/>
    <circle cx="500" cy="400" r="2" fill="#F7B500"/>
    <circle cx="700" cy="100" r="2" fill="#F7B500"/>
    <circle cx="800" cy="100" r="2" fill="#F7B500"/>
    <circle cx="900" cy="100" r="2" fill="#F7B500"/>
    <circle cx="1000" cy="100" r="2" fill="#F7B500"/>
    <circle cx="1100" cy="100" r="2" fill="#F7B500"/>
    <circle cx="700" cy="200" r="2" fill="#F7B500"/>
    <circle cx="800" cy="200" r="2" fill="#F7B500"/>
    <circle cx="900" cy="200" r="2" fill="#F7B500"/>
    <circle cx="1000" cy="200" r="2" fill="#F7B500"/>
    <circle cx="1100" cy="200" r="2" fill="#F7B500"/>
    <circle cx="700" cy="300" r="2" fill="#F7B500"/>
    <circle cx="800" cy="300" r="2" fill="#F7B500"/>
    <circle cx="900" cy="300" r="2" fill="#F7B500"/>
    <circle cx="1000" cy="300" r="2" fill="#F7B500"/>
    <circle cx="1100" cy="300" r="2" fill="#F7B500"/>
  </g>
  <!-- Circuit-like paths -->
  <path d="M100 500 L200 500 L200 600 L300 600" stroke="#F7B500" stroke-width="1" opacity="0.15" fill="none"/>
  <path d="M500 500 L600 500 L600 600 L700 600" stroke="#F7B500" stroke-width="1" opacity="0.15" fill="none"/>
  <path d="M900 500 L1000 500 L1000 600 L1100 600" stroke="#F7B500" stroke-width="1" opacity="0.15" fill="none"/>
</svg>