<svg viewBox="0 0 600 400" fill="none" xmlns="http://www.w3.org/2000/svg">
  <rect width="600" height="400" fill="#0A3D73"/>
  <!-- Farm fields -->
  <rect x="0" y="280" width="200" height="120" fill="#8BC34A" opacity="0.15"/>
  <rect x="200" y="280" width="200" height="120" fill="#8BC34A" opacity="0.12"/>
  <rect x="400" y="280" width="200" height="120" fill="#8BC34A" opacity="0.18"/>
  <!-- Solar panels in field -->
  <rect x="30" y="220" width="60" height="40" rx="3" fill="#0D4C8F" stroke="#1E6BB8" stroke-width="1" opacity="0.8"/>
  <rect x="100" y="220" width="60" height="40" rx="3" fill="#0D4C8F" stroke="#1E6BB8" stroke-width="1" opacity="0.8"/>
  <rect x="30" y="170" width="60" height="40" rx="3" fill="#0D4C8F" stroke="#1E6BB8" stroke-width="1" opacity="0.8"/>
  <rect x="100" y="170" width="60" height="40" rx="3" fill="#0D4C8F" stroke="#1E6BB8" stroke-width="1" opacity="0.8"/>
  <rect x="300" y="220" width="60" height="40" rx="3" fill="#0D4C8F" stroke="#1E6BB8" stroke-width="1" opacity="0.8"/>
  <rect x="370" y="220" width="60" height="40" rx="3" fill="#0D4C8F" stroke="#1E6BB8" stroke-width="1" opacity="0.8"/>
  <rect x="300" y="170" width="60" height="40" rx="3" fill="#0D4C8F" stroke="#1E6BB8" stroke-width="1" opacity="0.8"/>
  <rect x="370" y="170" width="60" height="40" rx="3" fill="#0D4C8F" stroke="#1E6BB8" stroke-width="1" opacity="0.8"/>
  <circle cx="520" cy="80" r="30" fill="#F7B500" opacity="0.7"/>
  <circle cx="520" cy="80" r="50" fill="#F7B500" opacity="0.12"/>
</svg>